<?xml version="1.0" encoding="UTF-8"?><svg id="Layer_1" xmlns="http://www.w3.org/2000/svg" viewBox="0 0 79.13 59.46"><defs><style>.cls-1{fill:#58595b;}</style></defs><path class="cls-1" d="m3.39,7.68c7.1-.53,14.21-1.07,21.32-1.52,7.6-.48,15.21-.86,22.82-.99,7.17-.12,14.36-.05,21.51.52.38.03.77.06,1.15.1.21.02.43.04.64.06.11.01.75.08.35.04s.16.03.26.05c.17.03.34.07.51.11.2.05.39.11.58.18.21.07.11.14,0,0-.18-.08-.2-.08-.08-.02.05.02.1.05.15.08.07.04.14.09.22.13.14.07.24.05,0,0-.21-.05-.13-.13,0,0,.04.04.2.23.23.24-.04-.01-.26-.42-.15-.18,0,.02.14.22.13.23-.04.03-.11-.46-.07-.14,0,.07.16.49.06.16-.09-.29,0-.01,0,.07,0,.11.01.21.02.32.01.25.02.5.03.74.02.5.08.99.14,1.49.42,3.94.69,7.9.76,11.87.06,3.49-.05,6.99-.36,10.47-.07.81-.16,1.62-.26,2.43-.03.21-.05.43-.08.64-.01.09-.02.18-.04.27-.04.3.03-.22.03-.23-.08.39-.11.78-.17,1.17-.24,1.55-.52,3.09-.85,4.63-.31,1.45-.68,2.89-1.07,4.33-.23.82-.33,1.65-.49,2.48-.02.11-.31,1.08-.29,1.1-.02-.02.23-.43.08-.19-.05.08-.09.16-.13.24-.19.37.04-.12.07-.07.01.02-.26.26-.28.29-.33.32.29-.15-.11.07-.17.09-.34.19-.52.28-.43.22.34-.11-.12.05-.25.09-.5.17-.75.26-.99.32-1.98.61-2.98.89-2,.57-4.02,1.08-6.06,1.53s-4.03.83-6.06,1.16c-.47.08-.93.15-1.4.22-.27.04-.54.08-.82.12-.12.02-.23.03-.35.05.26-.04.21-.03-.02,0-1.01.13-2.02.25-3.04.35-4.04.41-8.11.6-12.17.58s-8.18-.26-12.24-.68c-1.03-.11-2.05-.22-3.08-.35-.28-.03-.55-.07-.83-.11-.3-.04.05,0,.09.01-.12-.02-.24-.03-.36-.05-.51-.07-1.03-.15-1.54-.22-2.07-.31-4.13-.67-6.19-1.06-.68-.13-1.36-.24-2.03-.38-.36-.07-.71-.15-1.06-.25-.16-.04-.31-.1-.47-.14-.54-.16.31.19-.02,0-.1-.06-.56-.36-.18-.07.45.35-.35-.29-.38-.31-.19-.15-.39-.3-.59-.45-.48-.35.42.29-.04-.04-.04-.03-.1-.13-.14-.15,0,0,.33.45.19.22s.1.22.08.23c0,0-.09-.28-.1-.3-.16-.52-.3-1.04-.43-1.56-.24-.97-.45-1.96-.61-2.95-.04-.23-.08-.46-.11-.69-.02-.11-.03-.23-.05-.34,0-.04-.06-.42-.02-.12s0-.08-.01-.12c-.01-.12-.03-.23-.04-.35-.04-.31-.07-.62-.1-.93-.2-2.02-.29-4.04-.33-6.07-.16-8.54.12-17.12.49-25.65.09-2.12.2-4.24.31-6.35.07-1.34-1.23-2.63-2.57-2.57-1.45.07-2.49,1.13-2.57,2.57C.34,14.05.06,22.98,0,31.92c-.03,4.22-.03,8.46.5,12.65.28,2.22.66,4.43,1.27,6.58.31,1.06.71,2.1,1.58,2.84.24.2.49.39.74.57.08.06.16.12.25.18.09.06.19.22,0,0-.21-.25-.05-.03.02.04.11.1.23.18.35.27.21.16.41.32.64.44,1.41.73,2.97.95,4.51,1.25,2.1.4,4.2.78,6.31,1.1,4.38.67,8.79,1.16,13.21,1.42,8.56.49,17.15.06,25.62-1.32,4.25-.69,8.45-1.64,12.58-2.84,2.13-.62,4.38-1.16,6.09-2.64s1.83-3.52,2.27-5.54c.33-1.49.79-2.96,1.13-4.45s.64-3.12.89-4.69c.56-3.54.92-7.1,1.06-10.68.16-3.84.08-7.69-.16-11.52-.13-2.12-.32-4.24-.54-6.36-.1-.95-.1-1.9-.22-2.84-.17-1.34-.63-2.57-1.61-3.54-1.51-1.49-3.58-1.9-5.6-2.11-1.73-.18-3.47-.29-5.21-.39C62.01.13,58.31.03,54.6,0c-7.8-.05-15.59.23-23.38.65s-15.12.95-22.68,1.51c-1.72.13-3.44.26-5.16.38-1.34.1-2.63,1.11-2.57,2.57.06,1.31,1.13,2.67,2.57,2.57h0Z"/><path class="cls-1" d="m3.77,7.83c9.55,10.24,19.27,20.44,30.24,29.19,1.25,1,2.49,2.04,3.82,2.94.92.62,1.98,1.31,3.06,1.62,1.51.43,2.53-.28,3.64-1.15.73-.57,1.43-1.19,2.12-1.81,1.72-1.54,3.21-3.27,4.79-4.95,2.39-2.55,4.86-5.04,7.34-7.51,5.62-5.59,11.35-11.09,16.63-17.01.91-1.02,1.08-2.71,0-3.71-1-.92-2.73-1.09-3.71,0-4.61,5.16-9.55,10.01-14.47,14.87-2.44,2.41-4.87,4.82-7.25,7.29-1.18,1.23-2.36,2.46-3.51,3.72-.72.78-1.4,1.61-2.17,2.34-.64.61-1.3,1.2-1.96,1.79-.36.31-.71.62-1.08.92-.14.12-.29.23-.43.35.72-.63.23-.19.04-.05-.32.24-.28.07.33-.1-.45.12,1.74.12,1.17-.02-.32-.07-.12-.23.26.13-.14-.13-.41-.2-.58-.29-.25-.14-.5-.28-.75-.43-.35-.21-.69-.42-1.02-.66-.26-.19-.51-.39-.77-.58-.05-.04-.65-.5-.19-.14-.18-.14-.36-.28-.54-.42-5.38-4.21-10.46-8.8-15.36-13.56-5.48-5.33-10.74-10.89-15.95-16.48-.94-1-2.77-1.02-3.71,0-.99,1.08-1,2.63,0,3.71h0Z"/></svg>